# xmcd
#
# Track frame offsets:
#	150
#	22390
#	44652
#	65905
#	82592
#	99322
#	124857
#	141630
#	159000
#	180967
#	206835
#	222455
#
# Disc length: 3445 seconds
#
# Revision: 2
# Processed by: cddbd v1.5.2PL0 Copyright (c) Steve Scherf et al.
# Submitted via: AudioConverter v8.05 Copyright (c) D.R. Software
#
DISCID=b00d730c
DTITLE=Louisiana Red - The Blues Collection # 81 - Pretty Woman
DYEAR=1996
DGENRE=Louisiana Blues
TTITLE0=Vivienne
TTITLE1=Leaving Town
TTITLE2=Nothing But A Gypsy Man
TTITLE3=Valerie
TTITLE4=Sweet Blood Call
TTITLE5=Pretty Woman
TTITLE6=Sugar's Harmonica Boogie
TTITLE7=This Little Letter
TTITLE8=Locked Up So Long
TTITLE9=Sittin' Here Looking
TTITLE10=Ride On
TTITLE11=Blues For Ida B.
EXTD=Blues Collection #81
EXTT0=
EXTT1=
EXTT2=
EXTT3=
EXTT4=
EXTT5=
EXTT6=
EXTT7=
EXTT8=
EXTT9=
EXTT10=
EXTT11=
PLAYORDER=
